<svg width="96" height="76" viewBox="0 0 96 76" fill="none" xmlns="http://www.w3.org/2000/svg">
<path d="M81.25 0H14.75C10.9707 0 7.34612 1.50134 4.67373 4.17373C2.00134 6.84612 0.5 10.4707 0.5 14.25V61.75C0.5 65.5293 2.00134 69.1539 4.67373 71.8263C7.34612 74.4987 10.9707 76 14.75 76H81.25C85.0293 76 88.6539 74.4987 91.3263 71.8263C93.9987 69.1539 95.5 65.5293 95.5 61.75V14.25C95.5 10.4707 93.9987 6.84612 91.3263 4.17373C88.6539 1.50134 85.0293 0 81.25 0ZM81.25 9.5L50.375 30.7325C49.6529 31.1494 48.8338 31.3689 48 31.3689C47.1662 31.3689 46.3471 31.1494 45.625 30.7325L14.75 9.5H81.25Z" fill="white"/>
</svg>
