<?xml version="1.0" encoding="utf-8"?>
<!-- Generator: Adobe Illustrator 25.0.0, SVG Export Plug-In . SVG Version: 6.00 Build 0)  -->
<svg version="1.1" id="Layer_1" xmlns="http://www.w3.org/2000/svg" xmlns:xlink="http://www.w3.org/1999/xlink" x="0px" y="0px"
	 viewBox="0 0 180 180" style="enable-background:new 0 0 180 180;" xml:space="preserve">
<style type="text/css">
	.st0{fill:#7F499C;}
	.st1{fill:#535453;}
</style>
<g id="Compass2">
	<g>
		<path class="st0" d="M171.8,102.8c-1.9,32.8-23.1,61.3-54,72.4c-7.5,2.7-15.4,4.3-23.4,4.7c-16,0.9-32-2.9-45.8-11
			c-1.8-0.9-3.4-2.2-5-3.2l-2.5-1.7c-0.8-0.6-1.5-1.3-2.3-1.9c-1.5-1.3-3.1-2.5-4.6-3.9l-4.2-4.2c-5.5-5.8-10-12.4-13.5-19.6
			c-3.6-7.1-6.1-14.8-7.3-22.7c-2.7-15.8-0.7-32.1,5.8-46.8c3.2-7.3,7.5-14.1,12.7-20.2c0.6-0.8,1.3-1.5,1.9-2.3l2.1-2.1
			c1.4-1.4,2.8-2.8,4.3-4.1C51.1,23,70.7,15.7,90.8,16c5.7,0.1,10.3,4.8,10.3,10.5c-0.1,5.7-4.8,10.3-10.5,10.3
			C75.6,36.6,61,42,49.7,51.9c-1.1,1-2.1,2.1-3.2,3.1l-1.6,1.6c-0.5,0.6-0.9,1.1-1.4,1.7c-3.9,4.5-7.1,9.6-9.5,15
			c-4.8,11-6.3,23.1-4.3,34.9c0.9,5.9,2.8,11.6,5.5,16.9c2.6,5.4,6,10.3,10.1,14.6l3.1,3.2c1.1,1,2.3,1.9,3.4,2.9
			c0.6,0.5,1.1,1,1.7,1.4l1.9,1.2c1.3,0.8,2.4,1.7,3.7,2.4c10.4,6,22.3,8.9,34.2,8.2c18.1-1,34.9-10,45.7-24.5
			c7.2-9.6,11.3-21.1,12-33.1c0.3-5.7,5.2-10.1,11-9.8C167.8,92.1,172.2,97,171.8,102.8L171.8,102.8z"/>
	</g>
	<g>
		<path class="st1" d="M117.6,102.4c-3.9,0-7.7-1.6-10.5-4.6c-2.4-2.6-3.7-5.9-3.8-9.5l-0.4-35c-0.1-4.1,1.6-8,4.6-10.7L150,3.8
			c2.8-2.6,6.5-3.9,10.3-3.7c3.8,0.2,7.3,1.8,9.9,4.6c2.4,2.6,3.7,6,3.8,9.5l0.4,35c0.1,4.1-1.6,8-4.6,10.7l-42.4,38.9
			C124.6,101.2,121.1,102.4,117.6,102.4z M123.8,56l0.2,17.4l29.5-27.1L153.3,29L123.8,56z M153.5,49.3L153.5,49.3L153.5,49.3z
			 M153.1,14.3C153.1,14.4,153.1,14.4,153.1,14.3L153.1,14.3z"/>
	</g>
</g>
</svg>
