<svg width="114" height="114" viewBox="0 0 114 114" fill="none" xmlns="http://www.w3.org/2000/svg">
<path d="M57 0C25.5228 0 0 25.5228 0 57C0 88.4772 25.5228 114 57 114C88.4772 114 114 88.4772 114 57C114 25.5228 88.4772 0 57 0ZM84.3931 42.9663C84.4313 43.5643 84.4313 44.1877 84.4313 44.7984C84.4313 63.4761 70.2067 84.9911 44.2132 84.9911C36.1975 84.9911 28.7672 82.6627 22.5074 78.6549C23.6525 78.7822 24.7467 78.833 25.9172 78.833C32.5333 78.833 38.615 76.5938 43.4625 72.8022C37.2536 72.675 32.0371 68.6036 30.2558 63.0054C32.4315 63.3234 34.3909 63.3234 36.6301 62.7509C33.4331 62.1014 30.5596 60.3651 28.4977 57.837C26.4358 55.3089 25.3127 52.1449 25.3192 48.8826V48.7045C27.1895 49.7605 29.3906 50.4094 31.6935 50.4984C29.7576 49.2082 28.1699 47.4603 27.0713 45.4095C25.9727 43.3588 25.3971 41.0687 25.3955 38.7422C25.3955 36.1085 26.0826 33.7038 27.3167 31.6172C30.8653 35.9855 35.2933 39.5583 40.3131 42.1032C45.3328 44.6482 50.8319 46.1083 56.4529 46.3888C54.4554 36.7828 61.6313 29.0089 70.2576 29.0089C74.329 29.0089 77.9933 30.7138 80.5761 33.4621C83.7696 32.8641 86.8232 31.6681 89.546 30.065C88.49 33.3348 86.2761 36.0958 83.3371 37.8388C86.1871 37.5335 88.9353 36.7446 91.4799 35.6377C89.5587 38.4623 87.154 40.9688 84.3931 42.9663Z" fill="white"/>
</svg>
